<svg width="100" height="100" viewBox="0 0 100 100" fill="none" xmlns="http://www.w3.org/2000/svg">
<mask id="path-1-inside-1_251_92" fill="white">
<path d="M78.0992 8.64258C88.0155 15.38 95.181 25.4561 98.2897 37.0346C101.398 48.6132 100.243 60.9232 95.0353 71.7215C89.8271 82.5197 80.9124 91.0871 69.9159 95.8624C58.9194 100.638 46.5732 101.303 35.1272 97.7368C23.6813 94.1707 13.8976 86.6107 7.55935 76.4347C1.22106 66.2586 -1.24993 54.1439 0.596717 42.2983C2.44336 30.4528 8.48469 19.6651 17.6197 11.9012C26.7547 4.13733 38.3753 -0.0858522 50.3636 0.00132185L50 50L78.0992 8.64258Z"/>
</mask>
<path d="M78.0992 8.64258C88.0155 15.38 95.181 25.4561 98.2897 37.0346C101.398 48.6132 100.243 60.9232 95.0353 71.7215C89.8271 82.5197 80.9124 91.0871 69.9159 95.8624C58.9194 100.638 46.5732 101.303 35.1272 97.7368C23.6813 94.1707 13.8976 86.6107 7.55935 76.4347C1.22106 66.2586 -1.24993 54.1439 0.596717 42.2983C2.44336 30.4528 8.48469 19.6651 17.6197 11.9012C26.7547 4.13733 38.3753 -0.0858522 50.3636 0.00132185L50 50L78.0992 8.64258Z" fill="white" stroke="#F47220" stroke-width="2" mask="url(#path-1-inside-1_251_92)"/>
<line x1="77" y1="11.75" x2="81" y2="11.75" stroke="#F47220" stroke-width="0.5"/>
<line x1="75" y1="13.75" x2="84" y2="13.75" stroke="#F47220" stroke-width="0.5"/>
<line x1="74" y1="15.75" x2="86" y2="15.75" stroke="#F47220" stroke-width="0.5"/>
<line x1="73" y1="17.75" x2="88" y2="17.75" stroke="#F47220" stroke-width="0.5"/>
<line x1="71" y1="19.75" x2="89" y2="19.75" stroke="#F47220" stroke-width="0.5"/>
<line x1="70" y1="21.75" x2="91" y2="21.75" stroke="#F47220" stroke-width="0.5"/>
<line x1="68" y1="23.75" x2="92" y2="23.75" stroke="#F47220" stroke-width="0.5"/>
<line x1="67" y1="25.75" x2="93" y2="25.75" stroke="#F47220" stroke-width="0.5"/>
<line x1="66" y1="27.75" x2="94" y2="27.75" stroke="#F47220" stroke-width="0.5"/>
<line x1="64" y1="29.75" x2="95" y2="29.75" stroke="#F47220" stroke-width="0.5"/>
<line x1="63" y1="31.75" x2="96" y2="31.75" stroke="#F47220" stroke-width="0.5"/>
<line x1="62" y1="33.75" x2="97" y2="33.75" stroke="#F47220" stroke-width="0.5"/>
<line x1="60" y1="35.75" x2="97" y2="35.75" stroke="#F47220" stroke-width="0.5"/>
<line x1="59" y1="37.75" x2="98" y2="37.75" stroke="#F47220" stroke-width="0.5"/>
<line x1="58" y1="39.75" x2="98.5" y2="39.75" stroke="#F47220" stroke-width="0.5"/>
<line x1="56" y1="41.75" x2="98.5" y2="41.75" stroke="#F47220" stroke-width="0.5"/>
<line x1="55" y1="43.75" x2="99.5" y2="43.75" stroke="#F47220" stroke-width="0.5"/>
<line x1="53" y1="45.75" x2="99.5" y2="45.75" stroke="#F47220" stroke-width="0.5"/>
<line x1="52" y1="47.75" x2="99.8" y2="47.75" stroke="#F47220" stroke-width="0.5"/>
<line x1="51" y1="49.75" x2="99" y2="49.75" stroke="#F47220" stroke-width="0.5"/>
<line x1="49" y1="51.75" x2="99" y2="51.75" stroke="#F47220" stroke-width="0.5"/>
<line y1="53.75" x2="100" y2="53.75" stroke="#F47220" stroke-width="0.5"/>
<path d="M91.3999 21.9635C97.6514 31.1947 100.638 42.2505 99.886 53.374C99.1337 64.4975 94.6853 75.0504 87.2477 83.3558C79.8101 91.6612 69.81 97.2426 58.8366 99.2129C47.8633 101.183 36.5461 99.4297 26.6837 94.2306C16.8212 89.0316 8.97933 80.6855 4.40412 70.5187C-0.171081 60.3518 -1.21708 48.9475 1.43234 38.118C4.08176 27.2885 10.2746 17.6551 19.0267 10.7488C27.7789 3.84245 38.5882 0.0593541 49.7369 0.000692139L50 50L91.3999 21.9635Z" fill="#F47220"/>
</svg>
