<svg width="80" height="80" viewBox="0 0 80 80" fill="none" xmlns="http://www.w3.org/2000/svg">
<g filter="url(#filter0_d_521_87)">
<circle cx="37" cy="37" r="35" fill="#DAF1F9"/>
<circle cx="37" cy="37" r="34.5" stroke="white"/>
</g>
<path d="M51.7041 20H21.2959C19.4897 20 18.0438 21.1979 18 22.7507V45.2986C18 46.8415 19.4605 48.0986 21.2959 48.0986H35.5263V53.5211H27.0066C26.8129 53.5211 26.6272 53.599 26.4902 53.7377C26.3533 53.8764 26.2763 54.0645 26.2763 54.2606C26.2763 54.4567 26.3533 54.6448 26.4902 54.7834C26.6272 54.9221 26.8129 55 27.0066 55H45.9934C46.1871 55 46.3728 54.9221 46.5098 54.7834C46.6467 54.6448 46.7237 54.4567 46.7237 54.2606C46.7237 54.0645 46.6467 53.8764 46.5098 53.7377C46.3728 53.599 46.1871 53.5211 45.9934 53.5211H36.9868V48.0986H51.7041C53.5395 48.0986 55 46.8415 55 45.2986V22.8C55 21.257 53.5395 20 51.7041 20ZM53.5395 45.2986C53.5395 46.0134 52.6972 46.6197 51.7041 46.6197H21.2959C20.3222 46.6197 19.4605 46.0134 19.4605 45.2986V22.7704C19.4605 22.0606 20.3028 21.4789 21.2959 21.4789H51.7041C52.6778 21.4789 53.5395 22.0852 53.5395 22.8V45.2986Z" fill="#007198"/>
<path d="M39.0661 29.6766C38.8947 29.5901 38.6966 29.5752 38.5145 29.6351C38.3323 29.695 38.1808 29.825 38.0924 29.997L34.1587 37.7463C34.1149 37.8327 34.0883 37.927 34.0805 38.0238C34.0727 38.1207 34.0839 38.2181 34.1132 38.3105C34.1426 38.403 34.1897 38.4887 34.2518 38.5628C34.3139 38.6368 34.3898 38.6977 34.4751 38.7421C34.5605 38.7864 34.6536 38.8133 34.7492 38.8212C34.8449 38.8291 34.9411 38.8178 35.0324 38.7881C35.1237 38.7583 35.2083 38.7107 35.2815 38.6478C35.3546 38.5849 35.4148 38.5081 35.4586 38.4217L39.3825 30.6576C39.4664 30.4845 39.4803 30.2852 39.4212 30.1019C39.3621 29.9187 39.2347 29.7661 39.0661 29.6766Z" fill="#007198"/>
<path d="M43.7352 29.4055C43.5968 29.2749 43.4137 29.2038 43.2245 29.2071C43.0353 29.2105 42.8548 29.2881 42.721 29.4236C42.5872 29.5591 42.5106 29.7419 42.5072 29.9334C42.5039 30.125 42.5741 30.3104 42.7031 30.4506L46.3447 34.133L42.7031 37.8153C42.6314 37.883 42.5738 37.9647 42.5339 38.0554C42.494 38.1461 42.4725 38.244 42.4708 38.3433C42.4691 38.4426 42.4871 38.5412 42.5239 38.6333C42.5606 38.7253 42.6152 38.809 42.6846 38.8792C42.7539 38.9494 42.8365 39.0048 42.9275 39.0419C43.0184 39.0791 43.1158 39.0974 43.2138 39.0956C43.3119 39.0939 43.4086 39.0722 43.4982 39.0318C43.5878 38.9913 43.6684 38.9331 43.7352 38.8604L47.8929 34.6555C48.0296 34.5168 48.1064 34.3289 48.1064 34.133C48.1064 33.937 48.0296 33.7491 47.8929 33.6104L43.7352 29.4055Z" fill="#007198"/>
<path d="M30.8525 29.4055C30.7156 29.267 30.53 29.1892 30.3365 29.1892C30.143 29.1892 29.9573 29.267 29.8204 29.4055L25.6628 33.6153C25.526 33.754 25.4492 33.9419 25.4492 34.1379C25.4492 34.3338 25.526 34.5217 25.6628 34.6604L29.8204 38.8702C29.9589 39.0009 30.1419 39.072 30.3311 39.0686C30.5203 39.0652 30.7008 38.9876 30.8346 38.8521C30.9684 38.7167 31.0451 38.5339 31.0484 38.3423C31.0517 38.1507 30.9815 37.9654 30.8525 37.8252L27.2109 34.1428L30.8525 30.4505C30.9893 30.3119 31.0661 30.1239 31.0661 29.928C31.0661 29.732 30.9893 29.5441 30.8525 29.4055Z" fill="#007198"/>
<defs>
<filter id="filter0_d_521_87" x="0" y="0" width="80" height="80" filterUnits="userSpaceOnUse" color-interpolation-filters="sRGB">
<feFlood flood-opacity="0" result="BackgroundImageFix"/>
<feColorMatrix in="SourceAlpha" type="matrix" values="0 0 0 0 0 0 0 0 0 0 0 0 0 0 0 0 0 0 127 0" result="hardAlpha"/>
<feOffset dx="3" dy="3"/>
<feGaussianBlur stdDeviation="2.5"/>
<feComposite in2="hardAlpha" operator="out"/>
<feColorMatrix type="matrix" values="0 0 0 0 0.0666667 0 0 0 0 0.0666667 0 0 0 0 0.0666667 0 0 0 0.25 0"/>
<feBlend mode="normal" in2="BackgroundImageFix" result="effect1_dropShadow_521_87"/>
<feBlend mode="normal" in="SourceGraphic" in2="effect1_dropShadow_521_87" result="shape"/>
</filter>
</defs>
</svg>
