<svg width="57" height="58" viewBox="0 0 57 58" fill="none" xmlns="http://www.w3.org/2000/svg">
<path d="M2.97543 28.6776C3.12726 28.5258 3.33644 28.4313 3.56696 28.4301L55.8233 28.1714C56.2852 28.1691 56.6563 28.5402 56.6536 29.0017C56.6513 29.4636 56.2765 29.8384 55.815 29.8403L3.5587 30.099C3.09681 30.1013 2.7257 29.7302 2.72839 29.2687C2.73036 29.0382 2.8236 28.8294 2.97543 28.6776L2.97543 28.6776Z" fill="#F47220"/>
<path d="M0.431412 28.9999L11.6702 21.1928C12.0511 20.9283 12.5706 21.0208 12.8305 21.3983C13.0904 21.7757 12.9895 22.2953 12.614 22.5602L3.15009 29.1347L12.6112 37.3233C12.9584 37.6233 12.9929 38.1501 12.6898 38.5006C12.3764 38.855 11.8592 38.8905 11.5125 38.59L0.431412 28.9999Z" fill="#F47220"/>
</svg>
