<svg width="100" height="100" viewBox="0 0 100 100" fill="none" xmlns="http://www.w3.org/2000/svg">
<path d="M64.8687 2.26196C76.9072 6.01152 87.0845 14.171 93.3623 25.106C99.64 36.0409 101.555 48.944 98.7224 61.2307C95.8903 73.5174 88.5206 84.2804 78.0895 91.364C67.6584 98.4475 54.9362 101.329 42.4711 99.4299C30.006 97.5313 18.7184 90.9933 10.8693 81.1254C3.0202 71.2575 -0.810895 58.7884 0.143412 46.2157C1.09772 33.643 6.76695 21.8951 16.0156 13.325C25.2642 4.75484 37.4093 -0.00457448 50.0182 3.29531e-06L50 50L64.8687 2.26196Z" fill="#007198"/>
<path d="M40.4982 78.21L38.1882 77.972L40.6522 74.92C40.3442 75.0133 40.0315 75.06 39.7142 75.06C38.7249 75.06 37.9409 74.7707 37.3622 74.192C36.8209 73.6507 36.5502 72.8993 36.5502 71.938C36.5502 70.9487 36.8535 70.1367 37.4602 69.502C38.1322 68.802 39.1075 68.452 40.3862 68.452C41.5715 68.452 42.5049 68.7647 43.1862 69.39C43.8209 69.9873 44.1382 70.776 44.1382 71.756C44.1382 72.3907 43.9982 73.0253 43.7182 73.66C43.4942 74.1547 43.1302 74.7333 42.6262 75.396L40.4982 78.21ZM40.3722 70.216C39.9242 70.216 39.5509 70.356 39.2522 70.636C38.9255 70.9347 38.7622 71.3267 38.7622 71.812C38.7622 72.3347 38.9209 72.736 39.2382 73.016C39.5275 73.2773 39.9055 73.408 40.3722 73.408C40.8295 73.408 41.2075 73.2727 41.5062 73.002C41.8235 72.7033 41.9822 72.2927 41.9822 71.77C41.9822 71.322 41.8235 70.944 41.5062 70.636C41.2075 70.356 40.8295 70.216 40.3722 70.216ZM52.8622 73.338C52.8622 75.0553 52.4142 76.3573 51.5182 77.244C50.8555 77.888 50.0202 78.21 49.0122 78.21C48.0228 78.21 47.1968 77.888 46.5342 77.244C45.6382 76.3573 45.1902 75.0553 45.1902 73.338C45.1902 71.5927 45.6382 70.286 46.5342 69.418C47.1968 68.774 48.0228 68.452 49.0122 68.452C50.0202 68.452 50.8555 68.774 51.5182 69.418C52.4142 70.286 52.8622 71.5927 52.8622 73.338ZM49.8942 70.65C49.6515 70.4167 49.3622 70.3 49.0262 70.3C48.6902 70.3 48.4008 70.4167 48.1582 70.65C47.6355 71.1633 47.3742 72.0547 47.3742 73.324C47.3742 74.6027 47.6355 75.4987 48.1582 76.012C48.4008 76.2453 48.6902 76.362 49.0262 76.362C49.3622 76.362 49.6515 76.2453 49.8942 76.012C50.4168 75.4987 50.6782 74.6027 50.6782 73.324C50.6782 72.0547 50.4168 71.1633 49.8942 70.65ZM55.8107 77.972L61.2847 68.508L62.2647 68.718L56.7767 78.196L55.8107 77.972ZM56.8887 69.992C56.6927 69.7773 56.4267 69.67 56.0907 69.67C55.7547 69.67 55.4887 69.7773 55.2927 69.992C55.0874 70.1973 54.9847 70.468 54.9847 70.804C54.9847 71.14 55.0874 71.4107 55.2927 71.616C55.4887 71.8307 55.7547 71.938 56.0907 71.938C56.4267 71.938 56.6927 71.8307 56.8887 71.616C57.094 71.4107 57.1967 71.14 57.1967 70.804C57.1967 70.468 57.094 70.1973 56.8887 69.992ZM57.9387 69.236C58.34 69.6373 58.5407 70.16 58.5407 70.804C58.5407 71.448 58.34 71.9707 57.9387 72.372C57.4907 72.8387 56.8747 73.072 56.0907 73.072C55.3067 73.072 54.6907 72.8387 54.2427 72.372C53.8414 71.9707 53.6407 71.448 53.6407 70.804C53.6407 70.16 53.8414 69.6373 54.2427 69.236C54.6907 68.7693 55.3067 68.536 56.0907 68.536C56.8747 68.536 57.4907 68.7693 57.9387 69.236ZM62.7687 75.046C62.5727 74.8313 62.3067 74.724 61.9707 74.724C61.6347 74.724 61.3687 74.8313 61.1727 75.046C60.9674 75.2513 60.8647 75.522 60.8647 75.858C60.8647 76.194 60.9674 76.4647 61.1727 76.67C61.3687 76.8847 61.6347 76.992 61.9707 76.992C62.3067 76.992 62.5727 76.8847 62.7687 76.67C62.974 76.4647 63.0767 76.194 63.0767 75.858C63.0767 75.522 62.974 75.2513 62.7687 75.046ZM63.8187 74.29C64.22 74.6913 64.4207 75.214 64.4207 75.858C64.4207 76.502 64.22 77.0247 63.8187 77.426C63.3707 77.8927 62.7547 78.126 61.9707 78.126C61.1867 78.126 60.5707 77.8927 60.1227 77.426C59.7214 77.0247 59.5207 76.502 59.5207 75.858C59.5207 75.214 59.7214 74.6913 60.1227 74.29C60.5707 73.8233 61.1867 73.59 61.9707 73.59C62.7547 73.59 63.3707 73.8233 63.8187 74.29Z" fill="white"/>
</svg>
