<svg width="80" height="80" viewBox="0 0 80 80" fill="none" xmlns="http://www.w3.org/2000/svg">
<g filter="url(#filter0_d_521_89)">
<circle cx="37" cy="37" r="35" fill="#DAF1F9"/>
<circle cx="37" cy="37" r="34.5" stroke="white"/>
</g>
<path d="M51.7999 24.025C52.0657 23.7625 52.0657 23.3688 51.7999 23.1063L51.7556 23.0625L47.9007 20.1313C47.7678 20.0438 47.6349 20 47.5019 20H32.9687C32.6142 20 32.304 20.3063 32.304 20.6562V25.4688C32.304 25.8187 32.6142 26.125 32.9687 26.125H37.0007L33.7219 30.8063C33.5004 31.1125 33.589 31.5062 33.8991 31.725C34.2093 31.9437 34.6081 31.8563 34.8296 31.55L38.5959 26.1688L41.6089 27.5687V30.5H40.1467C39.9251 30.5 39.7036 30.5875 39.615 30.8063L30.6646 43.9312C30.576 44.0187 30.5317 44.15 30.576 44.2812V54.3438C30.576 54.6937 30.8861 55 31.2406 55H49.4072C49.7617 55 50.0718 54.6937 50.0718 54.3438V31.1562C50.0718 30.8062 49.7617 30.5 49.4072 30.5H47.8121V28.0062L51.7999 24.025ZM31.8609 53.6875V45.375H48.6983V53.6875H31.8609ZM48.6983 44.0625H32.1711L40.5011 31.8125H48.6983V44.0625ZM42.9381 30.5V27.1312C42.9381 26.8687 42.8052 26.65 42.5393 26.5625L38.9946 24.9C38.906 24.8563 38.8174 24.8563 38.7288 24.8563H33.6333V21.3125H47.2361L50.2934 23.6312L46.6601 27.2625C46.5271 27.3938 46.4828 27.5688 46.4828 27.7438V30.5H42.9381Z" fill="#007198"/>
<path d="M28.096 25.25C28.7078 25.25 29.2037 24.7603 29.2037 24.1562C29.2037 23.5522 28.7078 23.0625 28.096 23.0625C27.4842 23.0625 26.9883 23.5522 26.9883 24.1562C26.9883 24.7603 27.4842 25.25 28.096 25.25Z" fill="#007198"/>
<path d="M24.1077 28.3125C24.7195 28.3125 25.2154 27.8228 25.2154 27.2188C25.2154 26.6147 24.7195 26.125 24.1077 26.125C23.4959 26.125 23 26.6147 23 27.2188C23 27.8228 23.4959 28.3125 24.1077 28.3125Z" fill="#007198"/>
<path d="M24.1077 22.625C24.7195 22.625 25.2154 22.1353 25.2154 21.5312C25.2154 20.9272 24.7195 20.4375 24.1077 20.4375C23.4959 20.4375 23 20.9272 23 21.5312C23 22.1353 23.4959 22.625 24.1077 22.625Z" fill="#007198"/>
<defs>
<filter id="filter0_d_521_89" x="0" y="0" width="80" height="80" filterUnits="userSpaceOnUse" color-interpolation-filters="sRGB">
<feFlood flood-opacity="0" result="BackgroundImageFix"/>
<feColorMatrix in="SourceAlpha" type="matrix" values="0 0 0 0 0 0 0 0 0 0 0 0 0 0 0 0 0 0 127 0" result="hardAlpha"/>
<feOffset dx="3" dy="3"/>
<feGaussianBlur stdDeviation="2.5"/>
<feComposite in2="hardAlpha" operator="out"/>
<feColorMatrix type="matrix" values="0 0 0 0 0.0666667 0 0 0 0 0.0666667 0 0 0 0 0.0666667 0 0 0 0.25 0"/>
<feBlend mode="normal" in2="BackgroundImageFix" result="effect1_dropShadow_521_89"/>
<feBlend mode="normal" in="SourceGraphic" in2="effect1_dropShadow_521_89" result="shape"/>
</filter>
</defs>
</svg>
