<svg width="80" height="80" viewBox="0 0 80 80" fill="none" xmlns="http://www.w3.org/2000/svg">
<g filter="url(#filter0_d_521_88)">
<circle cx="37" cy="37" r="35" fill="#DAF1F9"/>
<circle cx="37" cy="37" r="34.5" stroke="white"/>
</g>
<path d="M53.7414 29.5885L37.8227 19.0966C37.6273 18.9678 37.373 18.9678 37.1777 19.0966L21.259 29.5885C21.0973 29.695 21 29.8747 21 30.0668C21 30.2588 21.0969 30.4385 21.259 30.545L23.6768 32.1386V40.5368C23.6768 40.7326 23.7776 40.9151 23.9442 41.0208L37.2792 49.4727C37.375 49.5332 37.4839 49.5635 37.5932 49.5635C37.7076 49.5635 37.8223 49.5301 37.9208 49.4635L44.8781 44.7709V48.0431L42.2862 53.168C42.1963 53.3462 42.2059 53.5581 42.3114 53.7275C42.4172 53.8965 42.6048 54 42.806 54H48.1127C48.3142 54 48.5015 53.8965 48.6073 53.7275C48.7128 53.5581 48.7228 53.3462 48.6325 53.168L46.0406 48.0431V43.9864L50.451 41.0116C50.6096 40.9047 50.7045 40.7269 50.7045 40.5368V32.5464L53.741 30.545C53.9027 30.4385 54 30.2588 54 30.0668C54 29.8747 53.9031 29.695 53.7414 29.5885ZM43.7473 52.8502L45.4595 49.4646L47.1718 52.8502H43.7473ZM37.5832 48.2995L24.8397 40.2225V32.9051L37.1777 41.0373C37.2754 41.1017 37.3878 41.1339 37.5002 41.1339C37.6126 41.1339 37.725 41.1017 37.8227 41.0373L44.8781 36.3869V43.379L37.5832 48.2995ZM49.542 40.2332L46.041 42.5948V35.6204L49.542 33.3129V40.2332ZM49.9215 31.681C49.8358 31.7124 49.7602 31.7626 49.699 31.8278L45.4595 34.6221L37.8227 29.5885C37.5549 29.4122 37.1943 29.4838 37.0164 29.7479C36.8385 30.0119 36.9106 30.3691 37.1777 30.545L44.4113 35.3127L37.5002 39.868L22.6297 30.0668L37.5002 20.2659L52.3707 30.0668L49.9215 31.681Z" fill="#007198"/>
<defs>
<filter id="filter0_d_521_88" x="0" y="0" width="80" height="80" filterUnits="userSpaceOnUse" color-interpolation-filters="sRGB">
<feFlood flood-opacity="0" result="BackgroundImageFix"/>
<feColorMatrix in="SourceAlpha" type="matrix" values="0 0 0 0 0 0 0 0 0 0 0 0 0 0 0 0 0 0 127 0" result="hardAlpha"/>
<feOffset dx="3" dy="3"/>
<feGaussianBlur stdDeviation="2.5"/>
<feComposite in2="hardAlpha" operator="out"/>
<feColorMatrix type="matrix" values="0 0 0 0 0.0666667 0 0 0 0 0.0666667 0 0 0 0 0.0666667 0 0 0 0.25 0"/>
<feBlend mode="normal" in2="BackgroundImageFix" result="effect1_dropShadow_521_88"/>
<feBlend mode="normal" in="SourceGraphic" in2="effect1_dropShadow_521_88" result="shape"/>
</filter>
</defs>
</svg>
