<svg width="80" height="80" viewBox="0 0 80 80" fill="none" xmlns="http://www.w3.org/2000/svg">
<g filter="url(#filter0_d_521_85)">
<circle cx="37" cy="37" r="35" fill="#DAF1F9"/>
<circle cx="37" cy="37" r="34.5" stroke="white"/>
</g>
<path d="M45.6848 31.4707C45.6881 31.4352 45.6881 31.3996 45.6848 31.3641V24.8016C45.6848 21.6022 42.6109 19 38.837 19H34.6522C30.8783 19 27.8044 21.6022 27.8044 24.8016V40.6848H24.5707C24.4193 40.6848 24.2742 40.7449 24.1671 40.8519C24.0601 40.9589 24 41.1041 24 41.2554V44.3217C23.9996 44.4112 24.0203 44.4995 24.0604 44.5795C24.1004 44.6595 24.1587 44.7289 24.2305 44.7822C24.3024 44.8356 24.3857 44.8712 24.4739 44.8864C24.562 44.9016 24.6525 44.8958 24.738 44.8696H32.1794C32.3307 44.8696 32.4758 44.8094 32.5829 44.7024C32.6899 44.5954 32.75 44.4503 32.75 44.2989V41.2554C32.75 41.1041 32.6899 40.9589 32.5829 40.8519C32.4758 40.7449 32.3307 40.6848 32.1794 40.6848H28.9457V24.8016C28.9457 22.2299 31.506 20.1413 34.6522 20.1413H38.837C41.9832 20.1413 44.5435 22.2299 44.5435 24.8016V30.7516C42.609 29.738 40.4499 29.2289 38.2663 29.2717C38.115 29.2717 37.9698 29.3319 37.8628 29.4389C37.7558 29.5459 37.6957 29.691 37.6957 29.8424V45.0598C37.6957 45.2111 37.7558 45.3563 37.8628 45.4633C37.9698 45.5703 38.115 45.6304 38.2663 45.6304C38.4177 45.6304 38.5628 45.5703 38.6698 45.4633C38.7768 45.3563 38.837 45.2111 38.837 45.0598V30.413C44.6348 30.6261 48.3478 34.088 48.3478 39.3571V50.9565H44.3533C44.2019 50.9565 44.0568 51.0166 43.9498 51.1237C43.8427 51.2307 43.7826 51.3758 43.7826 51.5272C43.7826 51.6785 43.8427 51.8237 43.9498 51.9307C44.0568 52.0377 44.2019 52.0978 44.3533 52.0978H48.9185C49.0698 52.0978 49.215 52.0377 49.322 51.9307C49.429 51.8237 49.4891 51.6785 49.4891 51.5272V39.3533C49.4891 35.9978 48.0815 33.2435 45.6848 31.4707ZM31.6087 43.7283H25.1413V41.8261H31.6087V43.7283Z" fill="#007198"/>
<path d="M38.4571 47.1521C37.7799 47.1521 37.118 47.3529 36.5549 47.7291C35.9918 48.1054 35.553 48.6401 35.2938 49.2657C35.0347 49.8914 34.9669 50.5798 35.099 51.244C35.2311 51.9082 35.5572 52.5182 36.036 52.9971C36.5149 53.4759 37.125 53.802 37.7891 53.9341C38.4533 54.0662 39.1418 53.9984 39.7674 53.7393C40.393 53.4801 40.9278 53.0413 41.304 52.4782C41.6802 51.9152 41.881 51.2532 41.881 50.576C41.881 49.6679 41.5203 48.797 40.8782 48.1549C40.2361 47.5128 39.3652 47.1521 38.4571 47.1521ZM38.4571 52.8586C38.0057 52.8586 37.5643 52.7247 37.189 52.4739C36.8136 52.2231 36.521 51.8666 36.3483 51.4495C36.1755 51.0324 36.1303 50.5735 36.2184 50.1307C36.3064 49.6879 36.5238 49.2812 36.8431 48.962C37.1623 48.6427 37.569 48.4253 38.0118 48.3373C38.4546 48.2492 38.9135 48.2944 39.3306 48.4672C39.7477 48.6399 40.1042 48.9325 40.355 49.3079C40.6059 49.6832 40.7397 50.1246 40.7397 50.576C40.7397 51.1814 40.4992 51.762 40.0712 52.1901C39.6431 52.6181 39.0625 52.8586 38.4571 52.8586Z" fill="#007198"/>
<path d="M24.9515 46.3914C24.8002 46.3914 24.655 46.4515 24.548 46.5585C24.441 46.6655 24.3809 46.8107 24.3809 46.962V50.7664C24.3809 50.9177 24.441 51.0629 24.548 51.1699C24.655 51.2769 24.8002 51.337 24.9515 51.337C25.1029 51.337 25.248 51.2769 25.355 51.1699C25.462 51.0629 25.5222 50.9177 25.5222 50.7664V46.962C25.5222 46.8107 25.462 46.6655 25.355 46.5585C25.248 46.4515 25.1029 46.3914 24.9515 46.3914Z" fill="#007198"/>
<path d="M28.3753 46.3914C28.224 46.3914 28.0788 46.4515 27.9718 46.5585C27.8648 46.6655 27.8047 46.8107 27.8047 46.962V50.7664C27.8047 50.9177 27.8648 51.0629 27.9718 51.1699C28.0788 51.2769 28.224 51.337 28.3753 51.337C28.5267 51.337 28.6718 51.2769 28.7789 51.1699C28.8859 51.0629 28.946 50.9177 28.946 50.7664V46.962C28.946 46.8107 28.8859 46.6655 28.7789 46.5585C28.6718 46.4515 28.5267 46.3914 28.3753 46.3914Z" fill="#007198"/>
<path d="M31.7992 46.3914C31.6478 46.3914 31.5027 46.4515 31.3957 46.5585C31.2886 46.6655 31.2285 46.8107 31.2285 46.962V50.7664C31.2285 50.9177 31.2886 51.0629 31.3957 51.1699C31.5027 51.2769 31.6478 51.337 31.7992 51.337C31.9505 51.337 32.0957 51.2769 32.2027 51.1699C32.3097 51.0629 32.3698 50.9177 32.3698 50.7664V46.962C32.3698 46.8107 32.3097 46.6655 32.2027 46.5585C32.0957 46.4515 31.9505 46.3914 31.7992 46.3914Z" fill="#007198"/>
<defs>
<filter id="filter0_d_521_85" x="0" y="0" width="80" height="80" filterUnits="userSpaceOnUse" color-interpolation-filters="sRGB">
<feFlood flood-opacity="0" result="BackgroundImageFix"/>
<feColorMatrix in="SourceAlpha" type="matrix" values="0 0 0 0 0 0 0 0 0 0 0 0 0 0 0 0 0 0 127 0" result="hardAlpha"/>
<feOffset dx="3" dy="3"/>
<feGaussianBlur stdDeviation="2.5"/>
<feComposite in2="hardAlpha" operator="out"/>
<feColorMatrix type="matrix" values="0 0 0 0 0.0666667 0 0 0 0 0.0666667 0 0 0 0 0.0666667 0 0 0 0.25 0"/>
<feBlend mode="normal" in2="BackgroundImageFix" result="effect1_dropShadow_521_85"/>
<feBlend mode="normal" in="SourceGraphic" in2="effect1_dropShadow_521_85" result="shape"/>
</filter>
</defs>
</svg>
