<svg width="80" height="80" viewBox="0 0 80 80" fill="none" xmlns="http://www.w3.org/2000/svg">
<g filter="url(#filter0_d_521_86)">
<circle cx="37" cy="37" r="35" fill="#DAF1F9"/>
<circle cx="37" cy="37" r="34.5" stroke="white"/>
</g>
<path d="M41.9358 31.8486L30.3332 40.999C30.1027 41.1896 30.0259 41.5709 30.2564 41.7996C30.3716 41.9521 30.5253 42.0284 30.7174 42.0284C30.8327 42.0284 30.9863 41.9902 31.0632 41.914L42.6658 32.7637C42.8963 32.573 42.9732 32.1918 42.7427 31.963C42.5506 31.6961 42.2048 31.658 41.9358 31.8486Z" fill="#007198"/>
<path d="M33.4454 35.9282C33.5991 35.9282 33.7527 35.9282 33.9064 35.8901C35.4816 35.6613 36.5958 34.1744 36.3268 32.5731C36.2116 31.8106 35.789 31.1243 35.1742 30.6668C34.5595 30.2093 33.7911 30.0186 33.0228 30.133C32.2544 30.2474 31.5628 30.6668 31.1018 31.2768C30.6408 31.8868 30.4487 32.6494 30.5639 33.4119C30.7944 34.8988 32.0623 35.9282 33.4454 35.9282ZM33.1764 31.3149C33.2533 31.3149 33.3685 31.2768 33.4454 31.2768C34.2906 31.2768 35.059 31.8868 35.1742 32.7637C35.3279 33.7169 34.6748 34.5938 33.7143 34.7463C32.7538 34.8988 31.8702 34.2507 31.7165 33.2975C31.5628 32.3443 32.2544 31.4674 33.1764 31.3149Z" fill="#007198"/>
<path d="M39.5937 37.8345C37.9801 37.8345 36.6738 39.1308 36.6738 40.7321C36.6738 42.3334 37.9801 43.6297 39.5937 43.6297C41.2073 43.6297 42.5136 42.3334 42.5136 40.7321C42.4751 39.1308 41.1689 37.8345 39.5937 37.8345ZM39.5937 42.4478C38.6332 42.4478 37.8264 41.6471 37.8264 40.6939C37.8264 39.7408 38.6332 38.9401 39.5937 38.9401C40.5542 38.9401 41.361 39.7408 41.361 40.6939C41.3226 41.6852 40.5542 42.4478 39.5937 42.4478Z" fill="#007198"/>
<path d="M53.9616 36.5C53.9616 36.4619 54 36.3856 54 36.3475C54 34.7081 52.2711 33.8693 50.7728 33.1449C49.697 32.6111 48.5445 32.0392 48.2371 31.3529C47.9297 30.6285 48.3524 29.4466 48.775 28.341C49.3513 26.7778 49.9276 25.1765 48.8518 24.1089C47.7761 23.0414 46.2393 23.4227 44.7025 23.7658C43.6268 23.9946 42.5126 24.2614 41.7827 23.9564C41.0527 23.6514 40.438 22.6983 39.8617 21.7832C39.0165 20.4869 38.0944 19 36.4808 19C34.8672 19 33.9451 20.4869 33.1383 21.8214C32.562 22.7745 31.9857 23.7277 31.2558 24.0327C30.5258 24.3377 29.3732 24.0708 28.2975 23.8039C26.7607 23.4227 25.1855 23.0414 24.1482 24.0708C23.0724 25.1383 23.6103 26.7397 24.1098 28.3028C24.494 29.4466 24.8397 30.5904 24.5324 31.3529C24.225 32.0773 23.1493 32.6111 22.112 33.1449C20.652 33.9074 19 34.7462 19 36.3475C19 36.3856 19 36.4619 19.0384 36.5C19.0384 36.5381 19 36.6144 19 36.6525C19 38.2538 20.652 39.1307 22.112 39.8551C23.1493 40.3889 24.225 40.9227 24.5324 41.6471C24.8397 42.3715 24.4555 43.5534 24.1098 44.6972C23.6103 46.2604 23.0724 47.8617 24.1482 48.9292C25.2239 49.9967 26.7991 49.5773 28.2975 49.1961C29.3732 48.9292 30.5258 48.6623 31.2558 48.9673C31.9857 49.2723 32.562 50.2255 33.1383 51.1787C33.9451 52.5131 34.8672 54 36.4808 54C38.0944 54 39.0549 52.5131 39.8617 51.2168C40.438 50.3017 41.0527 49.3486 41.7827 49.0436C42.551 48.7386 43.6268 48.9673 44.7025 49.2342C46.2009 49.5773 47.7761 49.9586 48.8518 48.8911C49.9276 47.8235 49.3513 46.2222 48.775 44.659C48.3524 43.5153 47.9297 42.3715 48.2371 41.6471C48.5445 40.9227 49.6586 40.3889 50.7728 39.8551C52.2711 39.0926 54 38.2538 54 36.6525C54 36.5763 53.9616 36.5381 53.9616 36.5ZM50.2349 38.8257C48.9671 39.4739 47.6224 40.122 47.1614 41.2277C46.6619 42.3715 47.1998 43.744 47.6608 45.0784C48.1218 46.3366 48.5829 47.5566 48.0066 48.0904C47.3919 48.7004 46.2009 48.4336 44.933 48.1285C43.6652 47.8235 42.3974 47.5566 41.2832 48.0142C40.2075 48.4717 39.5159 49.5392 38.8628 50.6068C38.1328 51.7505 37.4413 52.8562 36.4424 52.8562C35.4819 52.8562 34.7903 51.7505 34.0604 50.5686C33.4072 49.463 32.7157 48.3573 31.64 47.8998C30.5258 47.4423 29.2195 47.7473 27.9517 48.0904C26.6839 48.3954 25.4929 48.7004 24.8782 48.1285C24.3019 47.5566 24.6861 46.3366 25.1087 45.0784C25.5313 43.744 25.9923 42.3715 25.4929 41.2658C25.0318 40.1601 23.764 39.512 22.5346 38.902C21.2667 38.2538 20.0757 37.6438 20.0757 36.6906C20.0757 36.6525 20.0757 36.5763 20.0373 36.5381C20.0373 36.5 20.0757 36.4237 20.0757 36.3856C20.0757 35.4706 21.2667 34.8606 22.5346 34.1743C23.764 33.5643 25.0318 32.9161 25.4929 31.8105C25.9539 30.6667 25.5313 29.2941 25.1087 27.9978C24.6861 26.7015 24.3019 25.4815 24.8782 24.9477C25.4929 24.3377 26.6839 24.6427 27.9517 24.9858C29.2195 25.2909 30.5258 25.634 31.64 25.1765C32.7157 24.719 33.4072 23.6133 34.0604 22.5076C34.7903 21.3257 35.4435 20.22 36.4424 20.22C37.4413 20.22 38.1328 21.3257 38.8628 22.4695C39.5543 23.537 40.2459 24.6046 41.2832 25.0621C42.3974 25.5196 43.6652 25.2146 44.933 24.9477C46.2009 24.6427 47.3919 24.3758 48.0066 24.9858C48.5829 25.5196 48.1218 26.7397 47.6608 27.9978C47.1614 29.3322 46.6619 30.7048 47.1614 31.8486C47.6224 32.9542 48.9671 33.6024 50.2349 34.2505C51.5796 34.8987 52.809 35.5468 52.809 36.4619C52.809 36.5 52.809 36.5763 52.8474 36.6144C52.8474 36.6525 52.809 36.7288 52.809 36.7669C52.8474 37.5294 51.5796 38.1776 50.2349 38.8257Z" fill="#007198"/>
<defs>
<filter id="filter0_d_521_86" x="0" y="0" width="80" height="80" filterUnits="userSpaceOnUse" color-interpolation-filters="sRGB">
<feFlood flood-opacity="0" result="BackgroundImageFix"/>
<feColorMatrix in="SourceAlpha" type="matrix" values="0 0 0 0 0 0 0 0 0 0 0 0 0 0 0 0 0 0 127 0" result="hardAlpha"/>
<feOffset dx="3" dy="3"/>
<feGaussianBlur stdDeviation="2.5"/>
<feComposite in2="hardAlpha" operator="out"/>
<feColorMatrix type="matrix" values="0 0 0 0 0.0666667 0 0 0 0 0.0666667 0 0 0 0 0.0666667 0 0 0 0.25 0"/>
<feBlend mode="normal" in2="BackgroundImageFix" result="effect1_dropShadow_521_86"/>
<feBlend mode="normal" in="SourceGraphic" in2="effect1_dropShadow_521_86" result="shape"/>
</filter>
</defs>
</svg>
