<svg width="25" height="24" viewBox="0 0 25 24" fill="none" xmlns="http://www.w3.org/2000/svg">
<g clip-path="url(#clip0_253_146)">
<path d="M12.2598 24C5.49977 24 0 18.6172 0 12.0006C0 5.38341 5.49977 0 12.2598 0C14.9476 0 17.5145 0.848633 19.6828 2.45448C20.1049 2.76682 20.1931 3.36162 19.8799 3.78274C19.5674 4.20355 18.9716 4.29253 18.5495 3.97989C16.7114 2.61872 14.5364 1.89929 12.2598 1.89929C6.54881 1.89929 1.90244 6.43072 1.90244 12.0003C1.90244 17.5696 6.54881 22.1007 12.2598 22.1007C17.9711 22.1007 22.6174 17.5696 22.6174 12.0003C22.6174 11.2202 22.5305 10.4618 22.3592 9.74571C22.2374 9.23562 22.5527 8.72339 23.0637 8.60151C23.5728 8.47962 24.0874 8.79439 24.2098 9.30479C24.4155 10.1653 24.5199 11.0721 24.5199 12.0006C24.5196 18.6172 19.0201 24 12.2598 24Z" fill="#111111"/>
<path d="M12.0194 17.754C11.7676 17.754 11.5256 17.6543 11.3467 17.4761L4.8489 10.9896C4.47745 10.6187 4.47745 10.0175 4.8489 9.6467C5.22036 9.27586 5.82256 9.27555 6.19401 9.6467L11.9801 15.4226L23.3392 2.72021C23.6892 2.32895 24.2908 2.29513 24.6821 2.64433C25.074 2.99354 25.1082 3.59383 24.7584 3.98508L12.7291 17.4367C12.5548 17.6318 12.3079 17.7463 12.0466 17.7537C12.0372 17.754 12.0283 17.754 12.0194 17.754Z" fill="#111111"/>
</g>
<defs>
<clipPath id="clip0_253_146">
<rect width="25" height="24" fill="white"/>
</clipPath>
</defs>
</svg>
