<svg width="20" height="19" viewBox="0 0 20 19" fill="none" xmlns="http://www.w3.org/2000/svg">
<path d="M17.0865 2.76114C15.2064 0.981431 12.706 0.000942476 10.042 0C4.55332 0 0.0857299 4.22323 0.0837362 9.41439C0.0830716 11.0738 0.541627 12.6936 1.41288 14.1211L0 19L5.27904 17.6909C6.73346 18.4411 8.3713 18.8363 10.0377 18.837H10.0417C15.5301 18.837 19.9977 14.6131 20 9.42225C20.0017 6.90615 18.9669 4.54085 17.0865 2.76114ZM10.0424 17.2467H10.039C8.55372 17.2461 7.09698 16.8687 5.82631 16.1559L5.52393 15.9863L2.39113 16.7632L3.22717 13.8754L3.03045 13.5792C2.20206 12.3332 1.76444 10.8934 1.76511 9.41471C1.76677 5.10005 5.48007 1.58996 10.0454 1.58996C12.2561 1.59058 14.3342 2.40583 15.8969 3.88489C17.4597 5.36394 18.3196 7.32995 18.319 9.42099C18.3173 13.7363 14.6043 17.2467 10.0424 17.2467Z" fill="#111111"/>
<path d="M14.5829 11.3858C14.334 11.268 13.1108 10.699 12.8826 10.6205C12.6546 10.5419 12.4885 10.5027 12.3226 10.7383C12.1568 10.9739 11.68 11.5036 11.5348 11.6606C11.3896 11.8177 11.2444 11.8372 10.9958 11.7194C10.7469 11.6016 9.94513 11.3534 8.99479 10.5517C8.25512 9.92775 7.75569 9.15743 7.61048 8.92213C7.46527 8.68651 7.59486 8.55927 7.71947 8.44209C7.83145 8.33654 7.96836 8.1672 8.09263 8.02992C8.21691 7.89263 8.25844 7.7943 8.34151 7.63753C8.42459 7.48045 8.38305 7.34317 8.32091 7.22536C8.25877 7.10755 7.76101 5.94956 7.55366 5.47863C7.35163 5.01996 7.14661 5.08217 6.99376 5.07494C6.84888 5.06803 6.68274 5.06677 6.51692 5.06677C6.35111 5.06677 6.08163 5.12552 5.85335 5.36114C5.6254 5.59676 4.98242 6.1657 4.98242 7.32369C4.98242 8.48168 5.87395 9.6004 5.99856 9.75716C6.12283 9.91424 7.75303 12.2902 10.2492 13.3094C10.843 13.5519 11.3062 13.6964 11.6677 13.8048C12.2638 13.9839 12.8061 13.9587 13.2351 13.8981C13.7133 13.8305 14.7071 13.3291 14.9145 12.7797C15.1218 12.2302 15.1218 11.759 15.0597 11.661C14.9976 11.5626 14.8317 11.5036 14.5829 11.3858Z" fill="#111111"/>
</svg>
